<?xml version="1.0" encoding="UTF-8" standalone="no"?>
<!-- Created with Inkscape (http://www.inkscape.org/) -->

<svg
   version="1.1"
   id="svg1"
   width="779.70697"
   height="779.70697"
   viewBox="0 0 779.70698 779.70702"
   sodipodi:docname="theme-light.svg"
   inkscape:version="1.4.2 (f4327f4, 2025-05-13)"
   xml:space="preserve"
   xmlns:inkscape="http://www.inkscape.org/namespaces/inkscape"
   xmlns:sodipodi="http://sodipodi.sourceforge.net/DTD/sodipodi-0.dtd"
   xmlns="http://www.w3.org/2000/svg"
   xmlns:svg="http://www.w3.org/2000/svg"><defs
     id="defs1"><rect
       x="473.62399"
       y="462.12827"
       width="940.35052"
       height="938.05139"
       id="rect2" /><rect
       x="404.64963"
       y="310.38467"
       width="1115.0856"
       height="1236.9403"
       id="rect1" /><clipPath
       clipPathUnits="userSpaceOnUse"
       id="clipPath2"><path
         d="M 0,1967.963 H 1967.96 V 0 H 0 Z"
         transform="translate(-1067.0484,-904.1838)"
         id="path2" /></clipPath><clipPath
       clipPathUnits="userSpaceOnUse"
       id="clipPath4"><path
         d="M 0,1967.963 H 1967.96 V 0 H 0 Z"
         transform="translate(-556.82471,-1054.6565)"
         id="path4" /></clipPath><clipPath
       clipPathUnits="userSpaceOnUse"
       id="clipPath6"><path
         d="M 0,1967.963 H 1967.96 V 0 H 0 Z"
         transform="translate(-1278.0435,-1054.346)"
         id="path6" /></clipPath><clipPath
       clipPathUnits="userSpaceOnUse"
       id="clipPath8"><path
         d="M 0,1967.963 H 1967.96 V 0 H 0 Z"
         transform="translate(-1573.7026,-1338.9797)"
         id="path8" /></clipPath><clipPath
       clipPathUnits="userSpaceOnUse"
       id="clipPath10"><path
         d="M 0,1967.963 H 1967.96 V 0 H 0 Z"
         transform="translate(-1063.7827,-142.01683)"
         id="path10" /></clipPath><clipPath
       clipPathUnits="userSpaceOnUse"
       id="clipPath12"><path
         d="M 0,1967.963 H 1967.96 V 0 H 0 Z"
         transform="translate(-741.47802,-142.01683)"
         id="path12" /></clipPath><clipPath
       clipPathUnits="userSpaceOnUse"
       id="clipPath14"><path
         d="M 0,1967.963 H 1967.96 V 0 H 0 Z"
         transform="translate(-904.3696,-142.01683)"
         id="path14" /></clipPath><clipPath
       clipPathUnits="userSpaceOnUse"
       id="clipPath16"><path
         d="M 0,1967.963 H 1967.96 V 0 H 0 Z"
         transform="translate(-1063.9752,-142.01683)"
         id="path16" /></clipPath><clipPath
       clipPathUnits="userSpaceOnUse"
       id="clipPath18"><path
         d="M 0,1967.963 H 1967.96 V 0 H 0 Z"
         transform="translate(-1226.7505,-142.01683)"
         id="path18" /></clipPath><clipPath
       clipPathUnits="userSpaceOnUse"
       id="clipPath20"><path
         d="M 0,1967.963 H 1967.96 V 0 H 0 Z"
         transform="translate(-741.47802,-142.01683)"
         id="path20" /></clipPath><clipPath
       clipPathUnits="userSpaceOnUse"
       id="clipPath2-4"><path
         d="M 0,1967.963 H 1967.96 V 0 H 0 Z"
         transform="translate(-1067.0484,-904.1838)"
         id="path2-8" /></clipPath><clipPath
       clipPathUnits="userSpaceOnUse"
       id="clipPath4-8"><path
         d="M 0,1967.963 H 1967.96 V 0 H 0 Z"
         transform="translate(-556.82471,-1054.6565)"
         id="path4-2" /></clipPath><clipPath
       clipPathUnits="userSpaceOnUse"
       id="clipPath6-4"><path
         d="M 0,1967.963 H 1967.96 V 0 H 0 Z"
         transform="translate(-1278.0435,-1054.346)"
         id="path6-5" /></clipPath><clipPath
       clipPathUnits="userSpaceOnUse"
       id="clipPath8-5"><path
         d="M 0,1967.963 H 1967.96 V 0 H 0 Z"
         transform="translate(-1573.7026,-1338.9797)"
         id="path8-1" /></clipPath><clipPath
       clipPathUnits="userSpaceOnUse"
       id="clipPath10-7"><path
         d="M 0,1967.963 H 1967.96 V 0 H 0 Z"
         transform="translate(-1063.7827,-142.01683)"
         id="path10-1" /></clipPath><clipPath
       clipPathUnits="userSpaceOnUse"
       id="clipPath12-1"><path
         d="M 0,1967.963 H 1967.96 V 0 H 0 Z"
         transform="translate(-741.47802,-142.01683)"
         id="path12-5" /></clipPath><clipPath
       clipPathUnits="userSpaceOnUse"
       id="clipPath14-2"><path
         d="M 0,1967.963 H 1967.96 V 0 H 0 Z"
         transform="translate(-904.3696,-142.01683)"
         id="path14-7" /></clipPath><clipPath
       clipPathUnits="userSpaceOnUse"
       id="clipPath16-6"><path
         d="M 0,1967.963 H 1967.96 V 0 H 0 Z"
         transform="translate(-1063.9752,-142.01683)"
         id="path16-1" /></clipPath><clipPath
       clipPathUnits="userSpaceOnUse"
       id="clipPath18-4"><path
         d="M 0,1967.963 H 1967.96 V 0 H 0 Z"
         transform="translate(-1226.7505,-142.01683)"
         id="path18-2" /></clipPath><clipPath
       clipPathUnits="userSpaceOnUse"
       id="clipPath20-3"><path
         d="M 0,1967.963 H 1967.96 V 0 H 0 Z"
         transform="translate(-741.47802,-142.01683)"
         id="path20-2" /></clipPath><clipPath
       clipPathUnits="userSpaceOnUse"
       id="clipPath2-6"><path
         d="M 0,1967.963 H 1967.96 V 0 H 0 Z"
         transform="translate(-1067.0484,-904.1838)"
         id="path2-1" /></clipPath><clipPath
       clipPathUnits="userSpaceOnUse"
       id="clipPath4-89"><path
         d="M 0,1967.963 H 1967.96 V 0 H 0 Z"
         transform="translate(-556.82471,-1054.6565)"
         id="path4-27" /></clipPath><clipPath
       clipPathUnits="userSpaceOnUse"
       id="clipPath6-9"><path
         d="M 0,1967.963 H 1967.96 V 0 H 0 Z"
         transform="translate(-1278.0435,-1054.346)"
         id="path6-54" /></clipPath><clipPath
       clipPathUnits="userSpaceOnUse"
       id="clipPath8-3"><path
         d="M 0,1967.963 H 1967.96 V 0 H 0 Z"
         transform="translate(-1573.7026,-1338.9797)"
         id="path8-12" /></clipPath><clipPath
       clipPathUnits="userSpaceOnUse"
       id="clipPath10-3"><path
         d="M 0,1967.963 H 1967.96 V 0 H 0 Z"
         transform="translate(-1063.7827,-142.01683)"
         id="path10-3" /></clipPath><clipPath
       clipPathUnits="userSpaceOnUse"
       id="clipPath12-4"><path
         d="M 0,1967.963 H 1967.96 V 0 H 0 Z"
         transform="translate(-741.47802,-142.01683)"
         id="path12-1" /></clipPath><clipPath
       clipPathUnits="userSpaceOnUse"
       id="clipPath14-1"><path
         d="M 0,1967.963 H 1967.96 V 0 H 0 Z"
         transform="translate(-904.3696,-142.01683)"
         id="path14-3" /></clipPath><clipPath
       clipPathUnits="userSpaceOnUse"
       id="clipPath16-8"><path
         d="M 0,1967.963 H 1967.96 V 0 H 0 Z"
         transform="translate(-1063.9752,-142.01683)"
         id="path16-7" /></clipPath><clipPath
       clipPathUnits="userSpaceOnUse"
       id="clipPath18-42"><path
         d="M 0,1967.963 H 1967.96 V 0 H 0 Z"
         transform="translate(-1226.7505,-142.01683)"
         id="path18-7" /></clipPath><clipPath
       clipPathUnits="userSpaceOnUse"
       id="clipPath20-7"><path
         d="M 0,1967.963 H 1967.96 V 0 H 0 Z"
         transform="translate(-741.47802,-142.01683)"
         id="path20-9" /></clipPath></defs><sodipodi:namedview
     id="namedview1"
     pagecolor="#ffffff"
     bordercolor="#000000"
     borderopacity="0.25"
     inkscape:showpageshadow="2"
     inkscape:pageopacity="0.0"
     inkscape:pagecheckerboard="0"
     inkscape:deskcolor="#d1d1d1"
     inkscape:zoom="0.61510396"
     inkscape:cx="506.41846"
     inkscape:cy="480.4066"
     inkscape:window-width="1904"
     inkscape:window-height="993"
     inkscape:window-x="1925"
     inkscape:window-y="0"
     inkscape:window-maximized="0"
     inkscape:current-layer="layer-MC0"
     showguides="true"><inkscape:page
       x="0"
       y="0"
       inkscape:label="1"
       id="page1"
       width="779.70697"
       height="779.70703"
       margin="0 308.58667 0 308.58267"
       bleed="0" /></sodipodi:namedview><g
     id="layer-MC0"
     inkscape:groupmode="layer"
     inkscape:label="Capa 3"
     transform="translate(-186.53175,-922.02915)"><path
       id="path52"
       style="display:none;fill:#000000"
       d="m 531.14962,961.61469 c -27.4767,0.78123 -99.8337,30.74957 -138.793,57.48441 -27.0493,18.5618 -70.2007,60.9672 -89.2773,87.7362 -82.2415,115.4037 -94.5342,261.2034 -32.4786,385.1954 19.2893,33.1166 47.5997,64.2798 78.7266,92.0683 109.3558,85.2421 254.7236,101.8807 384.05471,43.957 29.9996,-13.4358 80.068,-47.3979 103.5898,-70.2656 33.8786,-32.9365 77.4989,-97.9819 83.6719,-124.7676 2.9948,-12.9953 -3.8852,-24.6605 -15.9785,-27.0878 -3.6093,-0.7244 -20.9641,6.5342 -38.5664,16.1308 -39.6816,21.6341 -91.1686,36.0168 -131.9766,36.8672 -43.81371,0.913 -111.09081,-10.8904 -150.44311,-32.9712 -67.6385,-37.9522 -100.1281,-89.9511 -115.2578,-136.6601 -13.905,-42.928 -8.8963,-107.1324 0.6208,-149.9097 8.8642,-39.8428 33.0973,-87.4942 62.1172,-122.1426 12.8728,-15.3695 23.4043,-30.9554 23.4043,-34.63666 0,-12.33451 -10.0834,-21.37706 -23.414,-20.99805 z"
       sodipodi:nodetypes="sscccssssssssssss" /><path
       id="path29"
       style="font-variation-settings:normal;opacity:1;vector-effect:none;fill:#ffffff;fill-opacity:1;stroke-width:1;stroke-linecap:butt;stroke-linejoin:miter;stroke-miterlimit:4;stroke-dasharray:none;stroke-dashoffset:0;stroke-opacity:1;-inkscape-stroke:none;stop-color:#000000;stop-opacity:1"
       d="m 576.104,922.03406 c -7.56373,0.11543 -15.15373,2.2273 -21.13476,6.36523 -16.80657,11.6275 -14.78064,24.8373 -14.86914,92.91991 -0.0794,61.0949 0.97377,64.8009 10.89453,73.9141 12.39979,11.3904 36.30557,10.7868 49.42969,-0.7559 11.76844,-10.3503 10.68834,-20.6066 10.58984,-76.4687 -0.10107,-57.31866 -1.32903,-72.29096 -4.87891,-80.08206 -4.89151,-10.73569 -17.42502,-16.08497 -30.03125,-15.89258 z m 258.68755,98.98434 c -3.4613,-0.1756 -6.9045,0.3375 -10.1817,1.6739 -7.9279,3.2328 -19.094,13.2821 -58.4922,54.914 -38.397,40.5741 -46.2188,47.2943 -44.7578,62.8985 1.6291,17.4018 18.6075,34.2426 35.4434,34.4628 13.47,0.1762 16.7772,-1.7956 58.6347,-46.2988 46.6453,-49.5932 57.1836,-57.8167 52.9336,-77.8066 -3.277,-15.4135 -18.5815,-29.0826 -33.58,-29.8438 z m -514.09575,0.5723 c -2.23478,0.028 -4.54814,0.3281 -7.04687,0.8594 -18.97041,4.0333 -35.29928,26.2831 -28.17188,43.7617 3.2328,7.9279 13.28216,19.092 54.91406,58.4902 40.5741,38.397 47.29619,46.2208 62.90039,44.7598 17.4018,-1.6291 34.24269,-18.6075 34.46289,-35.4434 0.1762,-13.47 -1.79758,-16.7772 -46.30078,-58.6347 -43.39405,-40.8147 -55.11438,-53.9855 -70.75781,-53.793 z m 254.87695,138.9023 a 151.4798,151.4798 0 0 0 -151.48047,151.4805 151.4798,151.4798 0 0 0 151.48047,151.4805 151.4798,151.4798 0 0 0 151.4805,-151.4805 151.4798,151.4798 0 0 0 -151.4805,-151.4805 z m -306.08398,116.0078 c -61.0949,-0.079 -64.80086,0.9738 -73.91406,10.8946 -11.3904,12.3998 -10.78684,36.3055 0.75586,49.4297 10.3503,11.7684 20.6086,10.6878 76.4707,10.5898 57.3186,-0.101 72.28898,-1.329 80.08008,-4.8789 17.1771,-7.8264 20.56379,-35.2166 9.52929,-51.166 -11.6275,-16.8066 -24.83927,-14.7812 -92.92187,-14.8692 z m 596.64648,0 c -61.0949,-0.079 -64.8009,0.9738 -73.9141,10.8946 -11.3904,12.3998 -10.7848,36.3055 0.7579,49.4297 10.3503,11.7684 20.6066,10.6878 76.4687,10.5898 57.3186,-0.101 72.289,-1.329 80.0801,-4.8789 17.1771,-7.8264 20.5638,-35.2166 9.5293,-51.166 -11.6275,-16.8066 -24.8393,-14.7812 -92.9219,-14.8692 z m -114.6172,183.7832 c -2.2348,0.027 -4.5501,0.3282 -7.0488,0.8594 -18.9704,4.0333 -35.2973,26.2831 -28.1699,43.7617 3.2328,7.9279 13.2821,19.0921 54.914,58.4903 40.5741,38.397 47.2943,46.2207 62.8985,44.7597 17.4018,-1.6291 34.2427,-18.6074 34.4629,-35.4433 0.1762,-13.47 -1.7976,-16.7792 -46.3008,-58.6367 -43.3941,-40.8147 -55.1125,-53.9835 -70.7559,-53.7911 z m -349.05467,0.6309 c -15.64344,-0.1924 -27.36376,12.9783 -70.75781,53.793 -44.50314,41.8575 -46.47697,45.1647 -46.30079,58.6347 0.22021,16.8359 17.06109,33.8143 34.4629,35.4434 15.60415,1.461 22.32635,-6.3608 62.90039,-44.7578 41.63195,-39.3982 51.68125,-50.5643 54.91406,-58.4922 7.12746,-17.4786 -9.20147,-39.7284 -28.17188,-43.7617 -2.49874,-0.5313 -4.8121,-0.8319 -7.04687,-0.8594 z m 173.64062,59.3926 c -7.56373,0.1154 -15.15373,2.2253 -21.13476,6.3633 -16.80657,11.6275 -14.78064,24.8392 -14.86914,92.9218 -0.0794,61.0949 0.97377,64.8009 10.89453,73.9141 12.39979,11.3904 36.30557,10.7868 49.42969,-0.7559 11.76844,-10.3503 10.68834,-20.6086 10.58984,-76.4707 -0.10107,-57.3186 -1.32903,-72.2889 -4.87891,-80.08 -4.89151,-10.7357 -17.42502,-16.085 -30.03125,-15.8926 z" /></g></svg>
